<?xml version="1.0" standalone="no"?>
<!DOCTYPE svg PUBLIC "-//W3C//DTD SVG 20010904//EN"
 "http://www.w3.org/TR/2001/REC-SVG-20010904/DTD/svg10.dtd">
<svg version="1.0" xmlns="http://www.w3.org/2000/svg"
 width="141.000000pt" height="141.000000pt" viewBox="0 0 141.000000 141.000000"
 preserveAspectRatio="xMidYMid meet">
<metadata>
Created by potrace 1.10, written by Peter Selinger 2001-2011
</metadata>
<g transform="translate(0.000000,141.000000) scale(0.100000,-0.100000)"
fill="#000000" stroke="none">
<path d="M1087 1288 l-116 -123 101 -101 100 -101 118 125 c92 97 117 129 110
142 -9 16 -184 180 -193 180 -3 0 -57 -55 -120 -122z m202 -2 c35 -35 62 -68
60 -74 -6 -16 -168 -182 -178 -182 -5 0 -39 29 -75 65 -49 47 -65 69 -59 79
15 27 165 176 177 176 6 0 40 -29 75 -64z"/>
<path d="M191 1239 c-58 -11 -114 -49 -148 -101 l-28 -42 0 -371 0 -371 28
-42 c35 -54 93 -92 154 -101 33 -4 48 -11 47 -21 0 -8 -4 -54 -7 -103 l-7 -87
69 0 c68 0 69 1 198 79 l130 79 264 4 c299 4 298 4 368 85 l41 48 0 -58 c0
-51 -4 -62 -28 -87 -45 -45 -112 -53 -356 -45 l-211 7 -67 -27 c-66 -26 -133
-75 -112 -82 6 -2 44 11 85 29 l74 32 260 1 c257 0 261 0 310 25 84 42 84 41
87 388 l3 302 -43 0 -43 0 2 -230 c1 -257 -2 -271 -71 -317 -32 -22 -40 -23
-294 -23 l-261 0 -164 -100 c-90 -55 -165 -100 -166 -100 -1 0 0 10 2 23 11
66 19 214 12 228 -6 11 -27 18 -74 21 -51 5 -73 12 -101 33 -62 48 -64 59 -64
410 0 353 2 362 66 411 l37 29 272 3 271 3 14 32 c7 18 15 35 18 40 5 10 -513
7 -567 -4z"/>
<path d="M879 962 c-8 -67 -12 -122 -9 -122 3 0 55 10 115 23 l110 22 -101
100 -100 100 -15 -123z m96 -14 c29 -35 22 -48 -27 -48 -26 0 -28 3 -28 40 0
50 18 52 55 8z"/>
<path d="M279 924 c-9 -11 -10 -20 -2 -32 9 -15 33 -17 193 -17 160 0 184 2
193 17 8 12 7 21 -2 32 -20 24 -362 24 -382 0z"/>
<path d="M288 719 c-21 -12 -23 -40 -6 -57 9 -9 82 -12 269 -12 142 0 264 3
273 6 19 7 21 45 4 62 -15 15 -514 17 -540 1z"/>
<path d="M279 494 c-9 -11 -10 -20 -2 -32 9 -15 47 -17 374 -20 329 -2 365 -1
376 14 9 12 9 22 2 35 -9 18 -29 19 -373 19 -320 0 -365 -2 -377 -16z"/>
</g>
</svg>
